<svg width="32" height="32" viewBox="0 0 32 32" fill="none" xmlns="http://www.w3.org/2000/svg">
<path d="M16 25V29M16 13V17M16 3V5M26 13H6.41437C6.28297 13 6.15285 12.9741 6.03145 12.9238C5.91006 12.8736 5.79976 12.7998 5.70687 12.7069L2 9L5.70687 5.29313C5.79976 5.20018 5.91006 5.12645 6.03145 5.07615C6.15285 5.02586 6.28297 4.99998 6.41437 5H26C26.2652 5 26.5196 5.10536 26.7071 5.29289C26.8946 5.48043 27 5.73478 27 6V12C27 12.2652 26.8946 12.5196 26.7071 12.7071C26.5196 12.8946 26.2652 13 26 13ZM6 25H25.5856C25.717 25 25.8471 24.9741 25.9685 24.9238C26.0899 24.8736 26.2002 24.7998 26.2931 24.7069L30 21L26.2931 17.2931C26.2002 17.2002 26.0899 17.1264 25.9685 17.0762C25.8471 17.0259 25.717 17 25.5856 17H6C5.73478 17 5.48043 17.1054 5.29289 17.2929C5.10536 17.4804 5 17.7348 5 18V24C5 24.2652 5.10536 24.5196 5.29289 24.7071C5.48043 24.8946 5.73478 25 6 25Z" stroke="black" stroke-width="2" stroke-linecap="round" stroke-linejoin="round"/>
</svg>
